<svg width="29" height="36" viewBox="0 0 29 36" fill="none" xmlns="http://www.w3.org/2000/svg">
<g clip-path="url(#clip0_9_650)">
<path fill-rule="evenodd" clip-rule="evenodd" d="M14.5 0.0316772C22.382 0.0316772 28.7723 6.45023 28.7723 14.368C28.7723 17.2209 27.7013 19.8535 25.7638 22.5784C24.7627 23.9864 21.4894 28.171 15.8932 35.2005C15.1791 36.0975 13.8208 36.0975 13.1067 35.2005C7.51066 28.1708 4.23759 23.9862 3.23599 22.5784C1.29856 19.8536 0.227539 17.221 0.227539 14.368C0.227539 6.45023 6.61748 0.0316772 14.5 0.0316772ZM14.5 8.99199C17.4558 8.99199 19.852 11.399 19.852 14.3683C19.852 17.3376 17.4558 19.7446 14.5 19.7446C11.5441 19.7446 9.14792 17.3376 9.14792 14.3683C9.14792 11.399 11.5441 8.99199 14.5 8.99199Z" fill="#BD00FF"/>
</g>
<defs>
<clipPath id="clip0_9_650">
<rect width="29" height="36" fill="white"/>
</clipPath>
</defs>
</svg>
