<svg width="43" height="49" viewBox="0 0 43 49" fill="none" xmlns="http://www.w3.org/2000/svg">
<path d="M21.0263 44.1508C25.579 44.1508 29.9453 42.3595 33.1646 39.1709C36.3838 35.9823 38.1924 31.6576 38.1924 27.1482C38.1924 22.6388 36.3838 18.3141 33.1646 15.1255C29.9453 11.9369 25.579 10.1455 21.0263 10.1455C16.4735 10.1455 12.1072 11.9369 8.88796 15.1255C5.66868 18.3141 3.86011 22.6388 3.86011 27.1482C3.86011 31.6576 5.66868 35.9823 8.88796 39.1709C12.1072 42.3595 16.4735 44.1508 21.0263 44.1508Z" stroke="#00FF38" stroke-width="4.68073" stroke-linecap="round" stroke-linejoin="round"/>
<path d="M28.0951 4.14417H13.9583" stroke="#00FF38" stroke-width="4.68073" stroke-linecap="round" stroke-linejoin="round"/>
<path d="M35.1632 10.1455L32.134 13.1458" stroke="#00FF38" stroke-width="4.68073" stroke-linecap="round" stroke-linejoin="round"/>
<path d="M21.0264 18.1467V27.1481" stroke="#00FF38" stroke-width="4.68073" stroke-linecap="round" stroke-linejoin="round"/>
</svg>
