<svg width="91" height="91" viewBox="0 0 91 91" fill="none" xmlns="http://www.w3.org/2000/svg">
<path d="M12.802 82.2062V36.1763L45.023 3.95532L77.2439 36.1763V82.2062C77.2439 83.427 76.759 84.5978 75.8957 85.461C75.0325 86.3243 73.8617 86.8092 72.6409 86.8092H17.405C16.1842 86.8092 15.0134 86.3243 14.1502 85.461C13.287 84.5978 12.802 83.427 12.802 82.2062Z" fill="#DF84FF" stroke="#BD00FF" stroke-width="4.50071" stroke-linecap="round" stroke-linejoin="round"/>
<path d="M35.8171 60.4331V82.2065V86.8095H54.2291V82.2065V60.4331C54.2291 59.2123 53.7442 58.0415 52.8809 57.1783C52.0177 56.315 50.8469 55.8301 49.6261 55.8301H40.4201C39.1993 55.8301 38.0286 56.315 37.1653 57.1783C36.3021 58.0415 35.8171 59.2123 35.8171 60.4331Z" stroke="#BD00FF" stroke-width="4.50071" stroke-linecap="round" stroke-linejoin="round"/>
<path d="M3.5957 45.3823L12.8017 36.1763L45.0227 3.95532L77.2436 36.1763L86.4496 45.3823" stroke="#BD00FF" stroke-width="4.50071" stroke-linecap="round" stroke-linejoin="round"/>
</svg>
