<svg width="45" height="27" viewBox="0 0 45 27" fill="none" xmlns="http://www.w3.org/2000/svg">
<path d="M1.14746 22.3674C-0.510103 20.396 -0.0140907 16.3333 0.44111 14.5483C12.5714 16.785 19.12 13.2372 20.878 11.1837C28.5631 3.18451 32.5877 1.31109 33.6394 1.37427L35.7584 3.26981C40.8818 3.80057 42.8219 6.04994 43.1515 7.10829C42.6178 6.50803 39.1112 7.36418 29.3542 15.5908C19.5972 23.8175 6.48429 23.5363 1.14746 22.3674Z" fill="#BD00FF"/>
<path d="M32.5092 18.055C27.1221 24.3862 21.2234 26.2217 18.9474 26.348C22.9782 28.2436 27.2195 25.5582 28.8362 23.9786C36.7473 27.3906 40.8284 22.1147 41.8801 19.0502C45.4212 16.3964 45.2391 12.7001 44.7054 11.1837C42.8846 10.8362 37.8963 11.7239 32.5092 18.055Z" fill="#BD00FF"/>
<path d="M7.08075 8.7195C6.06361 8.7195 4.14549 10.0464 3.31357 10.7098C6.18605 11.9735 14.9259 11.6007 26.9055 0C24.5699 0.530752 22.7302 1.80077 22.1024 2.36943C12.1947 -3.50675 7.95976 4.1544 7.08075 8.7195Z" fill="#BD00FF"/>
</svg>
