<svg width="91" height="91" viewBox="0 0 91 91" fill="none" xmlns="http://www.w3.org/2000/svg">
<path d="M4.48364 21.0039H85.7464V37.2565L82.9022 38.963C80.6927 40.2879 78.1648 40.9878 75.5885 40.9878C73.0123 40.9878 70.4844 40.2879 68.2749 38.963L65.4307 37.2565L62.5865 38.963C60.377 40.2879 57.8491 40.9878 55.2729 40.9878C52.6966 40.9878 50.1687 40.2879 47.9592 38.963L45.115 37.2565L42.2708 38.963C40.0613 40.2879 37.5335 40.9878 34.9572 40.9878C32.3809 40.9878 29.853 40.2879 27.6435 38.963L24.7993 37.2565L21.9551 38.963C19.7457 40.2879 17.2178 40.9878 14.6415 40.9878C12.0652 40.9878 9.53731 40.2879 7.32784 38.963L4.48364 37.2565V21.0039Z" stroke="#404040" stroke-width="4.50071" stroke-linecap="round" stroke-linejoin="round"/>
<path d="M12.6099 42.3107V86.0138H77.6201V41.3193" stroke="#404040" stroke-width="4.50071" stroke-linecap="round" stroke-linejoin="round"/>
<path d="M12.6099 20.6419V4.75098H77.6201V21.0035" stroke="#404040" stroke-width="4.50071" stroke-linecap="round" stroke-linejoin="round"/>
<path d="M55.2725 61.6355H34.9568V86.0143H55.2725V61.6355Z" stroke="#404040" stroke-width="4.50071" stroke-linecap="round" stroke-linejoin="round"/>
</svg>
