<svg width="43" height="52" viewBox="0 0 43 52" fill="none" xmlns="http://www.w3.org/2000/svg">
<g clip-path="url(#clip0_26_1352)">
<path d="M2.5147 32.6442C2.79341 33.8599 3.08209 35.2971 3.38768 37.0864L15.9787 36.5598C15.6532 32.0976 16.8358 25.8162 17.7496 22.0921C18.8206 17.5062 18.9003 13.2505 15.481 9.60413C13.525 7.51267 10.6453 6.65793 7.85113 7.49072C6.00562 8.04426 4.33731 9.28398 3.11892 10.9815C0.92004 14.0563 -0.168946 18.6941 0.051041 22.4132C0.258088 26.0187 1.70941 29.1354 2.5147 32.6442ZM39.5382 25.5988C39.2595 26.8126 38.9708 28.2508 38.6653 30.038L26.0742 29.5134C26.3997 25.0503 25.2172 18.7709 24.3034 15.0477C23.2323 10.4609 23.1527 6.20513 26.5729 2.55878C30.2171 -1.3399 35.897 -0.296665 38.934 3.93514C41.1329 7.01 42.2219 11.6487 42.0019 15.3679C41.7948 18.9723 40.3435 22.0901 39.5382 25.5988ZM38.4721 32.702C38.4711 33.0192 38.4751 33.3383 38.4841 33.6585C38.496 34.1043 38.5149 34.4972 38.5339 34.8782C38.6563 37.5601 38.7429 39.5359 36.4206 41.8897C35.2639 43.0636 33.8016 43.7508 32.2946 43.9951C31.1568 44.1776 29.9982 44.1058 28.9291 43.7966C27.867 43.4875 26.8954 42.9459 26.124 42.1799C25.2739 41.3401 24.6687 40.2301 24.4527 38.8717C24.2884 37.8454 24.3561 36.8241 24.5512 35.8158C24.7483 34.7875 25.0838 33.7612 25.4382 32.7608C25.5078 32.5644 25.5715 32.3659 25.6283 32.1654L38.4721 32.702ZM3.58178 39.7483C3.58178 40.0665 3.57681 40.3837 3.56884 40.7038C3.5569 41.1496 3.53799 41.5426 3.51907 41.9246C3.39664 44.6055 3.31004 46.5813 5.63234 48.935C6.78902 50.1089 8.25128 50.7971 9.75835 51.0405C10.8971 51.224 12.0548 51.1502 13.1238 50.842C14.186 50.5328 15.1575 49.9912 15.9299 49.2243C16.779 48.3855 17.3842 47.2754 17.6002 45.918C17.7645 44.8917 17.6968 43.8694 17.5017 42.8621C17.3046 41.8318 16.9691 40.8065 16.6148 39.8062C16.5451 39.6107 16.4824 39.4132 16.4256 39.2118L3.58178 39.7483Z" fill="#BD00FF"/>
</g>
<defs>
<clipPath id="clip0_26_1352">
<rect width="42.0066" height="51.008" fill="white" transform="translate(0.0231934 0.131226)"/>
</clipPath>
</defs>
</svg>
